<?xml version="1.0" encoding="utf-8"?>
<!-- Generator: Adobe Illustrator 22.1.0, SVG Export Plug-In . SVG Version: 6.00 Build 0)  -->
<svg version="1.1" id="Layer_1" xmlns="http://www.w3.org/2000/svg" xmlns:xlink="http://www.w3.org/1999/xlink" x="0px" y="0px"
	 viewBox="0 0 140 91" style="enable-background:new 0 0 140 91;" xml:space="preserve">
<style type="text/css">
	.st0{fill:none;stroke:#008BB4;stroke-width:4.2682;stroke-linecap:round;stroke-linejoin:round;}
</style>
<g>
	<path class="st0" d="M52,43l15.3,42.6 M50.3,4.3l15.3,44.5 M66.3,48.8L81.7,4.3 M52.1,68.3H25.5 M29.5,57.5h17 M38.6,25.7
		L17.2,85.6 M54,48.8L38.7,4.3h-2.9L4.1,85.6 M68.5,85.6l10.8-28.1"/>
	<g>
		<path class="st0" d="M91.2,4.1h10.1c14.2,0,19.2,1.4,24,6.8c2.6,2.7,4.9,8.1,4.9,12.7c0,9.9-4.3,14.2-10.9,16.6l0,0l0,0
			c10.5,2.6,15.1,11.2,15.1,19c0,6-1.8,14-6.2,18.4c-6.8,6.8-12.2,7.7-26.2,7.7l0,0h-1.9 M79.7,13.7 M100.2,75.7h6
			c14.3,0,15.8-9.7,15.8-16.4c0-5.6-2.8-13.8-15.8-13.8h-6 M91,22.8v22.7l0,0v39.9 M91,4.1 M100.2,36.9h3.4
			c12.3,0,14.2-7.4,14.2-11.7c0-5.2-2.5-11.4-14.2-11.4h-23"/>
	</g>
</g>
</svg>
